STARTFONT 2.1
COMMENT $XConsortium: luBIS18.bdf,v 1.7 94/04/02 16:22:51 gildea Exp $
COMMENT  (c) Copyright Bigelow & Holmes 1986, 1985. Lucida is a registered
COMMENT  trademark of Bigelow & Holmes. See LEGAL NOTICE file for terms 
COMMENT  of the license. 
COMMENT  
COMMENT  Translation to ISO8859-2 by Cub Soft;  Petr.Kolar@vslib.cz
COMMENT  
FONT -B&H-Lucida-Bold-I-Normal-Sans-25-180-100-100-P-159-ISO8859-2
SIZE 18 100 100
FONTBOUNDINGBOX 51 28 -17 -5
STARTPROPERTIES 20
COMMENT Begin LogicalFontDescription
FONTNAME_REGISTRY ""
FOUNDRY "B&H"
FAMILY_NAME "Lucida"
WEIGHT_NAME "Bold"
SLANT "I"
SETWIDTH_NAME "Normal"
ADD_STYLE_NAME "Sans"
PIXEL_SIZE 25
POINT_SIZE 180
RESOLUTION_X 100
RESOLUTION_Y 100
SPACING "P"
AVERAGE_WIDTH 159
CHARSET_REGISTRY "ISO8859"
CHARSET_ENCODING "2"
COMMENT END LogicalFontDescription
FONT_ASCENT 23
FONT_DESCENT 6
DEFAULT_CHAR 0
COPYRIGHT "Copyright Bigelow & Holmes 1986, 1985., Copyright 1996 Cub Soft"
FACE_NAME "Lucida Sans Bold Italic"
ENDPROPERTIES
CHARS 191
STARTCHAR space
ENCODING 32
SWIDTH 343 0
DWIDTH 9 0
BBX 1 1 0 0
BITMAP
00
ENDCHAR
STARTCHAR exclam
ENCODING 33
SWIDTH 343 0
DWIDTH 9 0
BBX 8 18 2 0
BITMAP
1f
1f
1f
1e
1e
1e
3c
3c
3c
3c
38
38
38
00
00
78
f8
f8
ENDCHAR
STARTCHAR quotedbl
ENCODING 34
SWIDTH 530 0
DWIDTH 13 0
BBX 11 8 4 11
BITMAP
fbe0
fbe0
f1e0
f1e0
71c0
71c0
71c0
71c0
ENDCHAR
STARTCHAR numbersign
ENCODING 35
SWIDTH 687 0
DWIDTH 17 0
BBX 16 18 2 0
BITMAP
0067
00c6
00ce
018c
018c
3fff
7fff
0630
0630
0c60
0c60
fffe
fffc
3180
3180
7300
6300
e600
ENDCHAR
STARTCHAR dollar
ENCODING 36
SWIDTH 687 0
DWIDTH 17 0
BBX 15 24 3 -3
BITMAP
0070
0060
00e0
03fc
07fe
0ffe
1ec4
1ec0
1fc0
1fc0
0fc0
07e0
03f0
03f8
03f8
0378
0378
6378
fff0
fff0
ffc0
0700
0600
0e00
ENDCHAR
STARTCHAR percent
ENCODING 37
SWIDTH 908 0
DWIDTH 23 0
BBX 21 18 3 0
BITMAP
1f0078
3f80e0
7fc1e0
f3c3c0
f3c780
f38f00
ff9e00
7f3c00
3e7800
00f3e0
01e7f0
03cff8
078e78
0f1e78
1e1e78
3c1ff0
380fe0
f007c0
ENDCHAR
STARTCHAR ampersand
ENCODING 38
SWIDTH 816 0
DWIDTH 20 0
BBX 19 18 2 0
BITMAP
00fc00
03fe00
03ff00
07cf00
07cf00
07de00
03fc00
03f0e0
1fe1e0
3df1c0
78f1c0
f0fb80
f07f80
f83f00
fc3e00
7ffe00
7fff00
1f8f80
ENDCHAR
STARTCHAR apostrophe
ENCODING 39
SWIDTH 265 0
DWIDTH 7 0
BBX 6 9 3 10
BITMAP
7c
7c
7c
78
78
38
38
f0
e0
ENDCHAR
STARTCHAR parenleft
ENCODING 40
SWIDTH 386 0
DWIDTH 10 0
BBX 10 24 2 -5
BITMAP
0040
01c0
0380
0780
0f00
1e00
1e00
3c00
7c00
7c00
7800
f800
f800
f800
f800
f800
f800
f800
7800
7800
7c00
3c00
1c00
0800
ENDCHAR
STARTCHAR parenright
ENCODING 41
SWIDTH 386 0
DWIDTH 10 0
BBX 10 24 1 -5
BITMAP
0400
0e00
0f00
0f00
0780
0780
07c0
07c0
07c0
07c0
07c0
07c0
07c0
0780
0f80
0f80
0f00
1e00
1e00
3c00
7800
f000
e000
8000
ENDCHAR
STARTCHAR asterisk
ENCODING 42
SWIDTH 464 0
DWIDTH 12 0
BBX 10 9 3 9
BITMAP
0f00
0e00
6ec0
73c0
f3c0
1200
ff00
7700
2400
ENDCHAR
STARTCHAR plus
ENCODING 43
SWIDTH 687 0
DWIDTH 17 0
BBX 15 15 2 0
BITMAP
00c0
01c0
01c0
01c0
0180
0180
fffe
fffe
fffe
0380
0300
0700
0700
0700
0700
ENDCHAR
STARTCHAR comma
ENCODING 44
SWIDTH 343 0
DWIDTH 9 0
BBX 6 9 1 -4
BITMAP
7c
7c
7c
78
78
38
38
f0
e0
ENDCHAR
STARTCHAR minus
ENCODING 45
SWIDTH 687 0
DWIDTH 17 0
BBX 15 3 3 5
BITMAP
fffe
fffe
fffc
ENDCHAR
STARTCHAR period
ENCODING 46
SWIDTH 343 0
DWIDTH 9 0
BBX 6 5 2 0
BITMAP
7c
7c
fc
f8
f8
ENDCHAR
STARTCHAR slash
ENCODING 47
SWIDTH 596 0
DWIDTH 15 0
BBX 19 23 0 -4
BITMAP
0001e0
0003c0
000380
000780
000f00
000e00
001e00
003c00
003800
007800
00f000
00e000
01e000
03c000
038000
078000
0f0000
0e0000
1e0000
3c0000
380000
780000
f00000
ENDCHAR
STARTCHAR zero
ENCODING 48
SWIDTH 687 0
DWIDTH 17 0
BBX 16 18 2 0
BITMAP
01f0
07fc
0ffe
1f1e
3e1f
3c1f
7c1f
7c1f
fc1f
f83f
f83e
f83e
f83c
f87c
78f8
7ff0
3fe0
0f80
ENDCHAR
STARTCHAR one
ENCODING 49
SWIDTH 687 0
DWIDTH 17 0
BBX 8 18 6 0
BITMAP
7f
7f
ff
1e
1e
3e
3e
3e
3c
3c
7c
7c
7c
78
78
f8
f8
f8
ENDCHAR
STARTCHAR two
ENCODING 50
SWIDTH 687 0
DWIDTH 17 0
BBX 16 18 2 0
BITMAP
07f8
0ffe
1fff
183f
001f
001f
003e
007e
00fc
01f0
07e0
0f80
1f00
3e00
7c00
7ffc
fffc
fff8
ENDCHAR
STARTCHAR three
ENCODING 51
SWIDTH 687 0
DWIDTH 17 0
BBX 15 18 3 0
BITMAP
07f8
0ffc
1ffe
183e
003e
003c
00f8
1ff0
1fe0
1ff0
00f8
007c
007c
007c
41f8
fff8
ffe0
7f80
ENDCHAR
STARTCHAR four
ENCODING 52
SWIDTH 687 0
DWIDTH 17 0
BBX 15 18 2 0
BITMAP
003e
007e
00fc
01fc
03fc
07bc
0f7c
1e78
3c78
7878
7ffe
fffe
fffc
00f0
00f0
00f0
01f0
01e0
ENDCHAR
STARTCHAR five
ENCODING 53
SWIDTH 687 0
DWIDTH 17 0
BBX 16 18 3 0
BITMAP
0fff
0fff
1ffe
1c00
1c00
1800
1f80
3fe0
3ff8
03f8
00fc
007c
007c
00fc
41f8
fff8
ffe0
ff80
ENDCHAR
STARTCHAR six
ENCODING 54
SWIDTH 687 0
DWIDTH 17 0
BBX 16 18 3 0
BITMAP
01ff
07ff
0fff
1f82
3e00
3e00
7c00
7ff0
fffc
fffc
fc7e
f83e
f83e
f83c
7c7c
7ff8
3ff0
0fc0
ENDCHAR
STARTCHAR seven
ENCODING 55
SWIDTH 687 0
DWIDTH 17 0
BBX 14 18 5 0
BITMAP
7ffc
7ffc
fffc
0078
00f8
01f0
03e0
03c0
0780
0f00
1f00
1e00
3c00
7c00
7c00
7800
f800
f800
ENDCHAR
STARTCHAR eight
ENCODING 56
SWIDTH 687 0
DWIDTH 17 0
BBX 15 18 3 0
BITMAP
01f8
07fc
0ffe
1e1e
1e1e
1e1e
1f3c
0ff0
0ff0
1ff8
7cfc
787c
f03c
f03c
f87c
fff8
7ff0
1fc0
ENDCHAR
STARTCHAR nine
ENCODING 57
SWIDTH 687 0
DWIDTH 17 0
BBX 16 18 2 0
BITMAP
03f0
0ffc
1ffe
3e3e
3c1f
7c1f
7c1f
7e3f
3fff
3fff
0ffe
003e
007c
007c
41f8
fff0
ffe0
ff80
ENDCHAR
STARTCHAR colon
ENCODING 58
SWIDTH 343 0
DWIDTH 9 0
BBX 8 13 2 0
BITMAP
1f
1f
3e
3e
3e
00
00
00
7c
7c
fc
f8
f8
ENDCHAR
STARTCHAR semicolon
ENCODING 59
SWIDTH 343 0
DWIDTH 9 0
BBX 8 17 1 -4
BITMAP
1f
1f
1f
1e
3e
00
00
00
3c
7c
7c
7c
7c
38
38
f0
e0
ENDCHAR
STARTCHAR less
ENCODING 60
SWIDTH 687 0
DWIDTH 17 0
BBX 16 15 3 0
BITMAP
0001
0007
001f
007e
03f8
0fe0
3f80
fe00
3e00
0f80
07e0
01f0
007c
0018
0008
ENDCHAR
STARTCHAR equal
ENCODING 61
SWIDTH 687 0
DWIDTH 17 0
BBX 16 8 2 3
BITMAP
3fff
7fff
7ffe
0000
0000
fffe
fffe
fffc
ENDCHAR
STARTCHAR greater
ENCODING 62
SWIDTH 687 0
DWIDTH 17 0
BBX 16 15 1 0
BITMAP
1000
1800
3e00
0f80
07e0
01f0
007c
007f
01fc
07f0
1fc0
7e00
7800
e000
8000
ENDCHAR
STARTCHAR question
ENCODING 63
SWIDTH 539 0
DWIDTH 13 0
BBX 12 18 3 0
BITMAP
3f80
7fe0
fff0
83f0
01f0
01e0
03e0
07c0
0f80
1f00
3e00
3c00
7c00
0000
0000
7800
f800
f800
ENDCHAR
STARTCHAR at
ENCODING 64
SWIDTH 833 0
DWIDTH 21 0
BBX 19 18 3 0
BITMAP
00fc00
03ff00
0f0380
1c00c0
3800e0
30fc60
63fc60
671c60
c61860
cc3860
cc78c0
cfd9c0
cf9f80
671e00
600000
383000
1ff000
07e000
ENDCHAR
STARTCHAR A
ENCODING 65
SWIDTH 771 0
DWIDTH 19 0
BBX 18 18 1 0
BITMAP
003e00
007e00
007e00
00fe00
01fe00
01df00
03df00
039f00
078f00
070f00
0f0f80
0fff80
1fff80
1fff80
380780
3807c0
7007c0
f007c0
ENDCHAR
STARTCHAR B
ENCODING 66
SWIDTH 660 0
DWIDTH 16 0
BBX 15 18 2 0
BITMAP
1ff8
1ffc
1ffe
1e3e
1e3e
3e3c
3c7c
3ff0
3fc0
3ff0
7cf8
7c7c
787c
787c
78fc
fff8
fff8
ffe0
ENDCHAR
STARTCHAR C
ENCODING 67
SWIDTH 737 0
DWIDTH 18 0
BBX 18 18 2 0
BITMAP
007f80
03ffc0
07ffc0
0fc080
1f0000
3e0000
7c0000
7c0000
780000
f80000
f80000
f80000
f80000
fc0000
7e0600
7ffe00
3ffe00
0ff800
ENDCHAR
STARTCHAR D
ENCODING 68
SWIDTH 822 0
DWIDTH 21 0
BBX 20 18 2 0
BITMAP
0fff00
1fffc0
1fffe0
1f07f0
1f03f0
1f01f0
3e01f0
3e01f0
3e01f0
3e03f0
3c03e0
7c03e0
7c07c0
7c0fc0
7c3f80
7fff00
fffc00
fff000
ENDCHAR
STARTCHAR E
ENCODING 69
SWIDTH 642 0
DWIDTH 16 0
BBX 16 18 2 0
BITMAP
0fff
1fff
1ffe
1f00
1f00
1e00
3e00
3ff8
3ff8
3ff8
3c00
7c00
7c00
7c00
7c00
7ffc
fff8
fff8
ENDCHAR
STARTCHAR F
ENCODING 70
SWIDTH 614 0
DWIDTH 15 0
BBX 16 18 2 0
BITMAP
0fff
1fff
1ffe
1f00
1f00
1e00
3e00
3e00
3ff8
3ff8
3ff0
7c00
7c00
7c00
7c00
7800
f800
f800
ENDCHAR
STARTCHAR G
ENCODING 71
SWIDTH 755 0
DWIDTH 19 0
BBX 18 18 2 0
BITMAP
007f80
03ffc0
07ffc0
0fc080
1f0000
3e0000
7c0000
7c0000
780000
f80f00
f80f00
f81f00
f81f00
fc1e00
7e1e00
7ffe00
3ffe00
0ff800
ENDCHAR
STARTCHAR H
ENCODING 72
SWIDTH 813 0
DWIDTH 20 0
BBX 20 18 2 0
BITMAP
0f81f0
1f01f0
1f01e0
1f03e0
1f03e0
1e03e0
3e03e0
3fffc0
3fffc0
3fffc0
3c07c0
7c07c0
7c0780
7c0f80
7c0f80
780f80
f80f80
f81f00
ENDCHAR
STARTCHAR I
ENCODING 73
SWIDTH 361 0
DWIDTH 9 0
BBX 8 18 2 0
BITMAP
1f
1f
1f
1e
1e
3e
3e
3e
3c
3c
7c
7c
7c
78
78
f8
f8
f8
ENDCHAR
STARTCHAR J
ENCODING 74
SWIDTH 502 0
DWIDTH 13 0
BBX 14 22 0 -4
BITMAP
007c
007c
007c
0078
00f8
00f8
00f8
00f8
00f0
01f0
01f0
01f0
01f0
01e0
03e0
03e0
03e0
03e0
47c0
ffc0
ff80
fe00
ENDCHAR
STARTCHAR K
ENCODING 75
SWIDTH 753 0
DWIDTH 19 0
BBX 17 18 2 0
BITMAP
1f0780
1f0f00
1f1e00
1f1c00
1e3800
3e7800
3ef000
3fe000
3fe000
3ff000
7df000
7cf800
7cf800
7c7c00
787e00
f83e00
f83f00
f81f00
ENDCHAR
STARTCHAR L
ENCODING 76
SWIDTH 623 0
DWIDTH 16 0
BBX 14 18 2 0
BITMAP
0f80
1f00
1f00
1f00
1f00
1f00
3e00
3e00
3e00
3e00
3c00
7c00
7c00
7c00
7c00
7ffc
fffc
fffc
ENDCHAR
STARTCHAR M
ENCODING 77
SWIDTH 940 0
DWIDTH 23 0
BBX 23 18 2 0
BITMAP
0fc07e
1fc07e
1fc0fc
1fc0fc
1fc1fc
1fc3fc
3fe3fc
3fe778
39e778
39ee78
39eef8
79fcf8
79fcf0
79f8f0
71f0f0
71f1f0
f0e1f0
f001e0
ENDCHAR
STARTCHAR N
ENCODING 78
SWIDTH 789 0
DWIDTH 20 0
BBX 19 18 2 0
BITMAP
1f01e0
1f01e0
1f81e0
1f81c0
1fc3c0
3fc3c0
3fe3c0
3fe3c0
3df380
39f780
78ff80
78ff80
787f80
787f00
703f00
f03f00
f01f00
f01f00
ENDCHAR
STARTCHAR O
ENCODING 79
SWIDTH 855 0
DWIDTH 21 0
BBX 20 18 2 0
BITMAP
007f00
03ffc0
07ffe0
0f87e0
1f03f0
3e01f0
7c01f0
7c01f0
f801f0
f801f0
f803e0
f803e0
f807c0
fc0f80
7e1f00
7ffe00
3ffc00
0fe000
ENDCHAR
STARTCHAR P
ENCODING 80
SWIDTH 645 0
DWIDTH 16 0
BBX 16 18 2 0
BITMAP
1ffc
1ffe
1fff
1e1f
1e1f
3e1f
3e1e
3e7e
3ffc
3ff8
7fe0
7c00
7c00
7800
7800
f800
f800
f800
ENDCHAR
STARTCHAR Q
ENCODING 81
SWIDTH 855 0
DWIDTH 21 0
BBX 21 22 2 -4
BITMAP
007f00
03ffc0
07ffe0
0f87e0
1f03f0
3e01f0
7c01f0
7c01f0
f801f0
f801f0
f803e0
f803e0
f807c0
fc0f80
7e1f00
7ffe00
3ffc00
0ffc00
003fc0
001ff8
0007e0
0000c0
ENDCHAR
STARTCHAR R
ENCODING 82
SWIDTH 708 0
DWIDTH 18 0
BBX 16 18 2 0
BITMAP
1ffc
1fff
1fff
1e1f
1e1f
3e1f
3e3e
3c7c
3ff8
3ff0
7ff0
7cf0
7cf8
78f8
7878
f87c
f87c
f83e
ENDCHAR
STARTCHAR S
ENCODING 83
SWIDTH 639 0
DWIDTH 16 0
BBX 15 18 2 0
BITMAP
01fc
07fe
1ffe
1f04
3e00
3e00
1f80
1fc0
0fe0
07f8
01f8
00fc
00fc
00fc
40f8
fff0
ffe0
ff80
ENDCHAR
STARTCHAR T
ENCODING 84
SWIDTH 747 0
DWIDTH 19 0
BBX 19 18 3 0
BITMAP
ffffe0
ffffe0
ffffe0
01f000
03e000
03e000
03e000
03e000
03e000
07c000
07c000
07c000
07c000
07c000
0f8000
0f8000
0f8000
0f8000
ENDCHAR
STARTCHAR U
ENCODING 85
SWIDTH 759 0
DWIDTH 19 0
BBX 18 18 3 0
BITMAP
3e03c0
3e07c0
3e0780
3e0780
3c0780
7c0780
7c0f80
7c0f00
780f00
f80f00
f80f00
f81f00
f81e00
f81e00
fc3c00
7ffc00
3ff800
0fe000
ENDCHAR
STARTCHAR V
ENCODING 86
SWIDTH 765 0
DWIDTH 19 0
BBX 18 18 4 0
BITMAP
f803c0
f80380
f80780
7c0700
7c0e00
7c1e00
7c1c00
7c3c00
7c3800
3e7800
3e7000
3ef000
3ee000
3fc000
1fc000
1f8000
1f8000
1f0000
ENDCHAR
STARTCHAR W
ENCODING 87
SWIDTH 991 0
DWIDTH 25 0
BBX 23 18 4 0
BITMAP
f03c1e
f07c1c
f07c3c
f87c38
f8fc78
f8fc70
f9fc70
f9fce0
fbbce0
fbbde0
fbbdc0
7f3fc0
7f3f80
7e3f80
7e3f00
7c3f00
7c3e00
7c3e00
ENDCHAR
STARTCHAR X
ENCODING 88
SWIDTH 696 0
DWIDTH 17 0
BBX 20 18 0 0
BITMAP
0f80f0
07c1e0
07c3c0
07e780
03ef00
03fe00
01fc00
01fc00
01f800
01f800
03f800
03fc00
07fc00
0f7e00
1e3e00
3c3e00
781f00
f01f00
ENDCHAR
STARTCHAR Y
ENCODING 89
SWIDTH 681 0
DWIDTH 17 0
BBX 16 18 4 0
BITMAP
f80f
781e
7c3c
7c38
3c78
3ef0
3fe0
1fc0
1f80
1f80
1f00
1f00
1f00
1f00
1f00
3e00
3e00
3e00
ENDCHAR
STARTCHAR Z
ENCODING 90
SWIDTH 687 0
DWIDTH 17 0
BBX 17 18 2 0
BITMAP
0fff80
0fff80
0fff80
003f00
007e00
00fc00
00fc00
01f800
03f000
07e000
0fc000
1f8000
1f8000
3f0000
7e0000
7ffc00
fffc00
fffc00
ENDCHAR
STARTCHAR bracketleft
ENCODING 91
SWIDTH 386 0
DWIDTH 10 0
BBX 11 23 1 -4
BITMAP
07e0
0fe0
0fc0
0f00
0f00
0f00
1e00
1e00
1e00
1e00
1e00
3c00
3c00
3c00
3c00
3c00
7800
7800
7800
7800
7e00
fe00
fc00
ENDCHAR
STARTCHAR backslash
ENCODING 92
SWIDTH 566 0
DWIDTH 14 0
BBX 9 23 4 -4
BITMAP
e000
f000
7000
7000
7000
7800
3800
3800
3800
3c00
1c00
1c00
1c00
1e00
0e00
0e00
0e00
0f00
0700
0700
0700
0780
0380
ENDCHAR
STARTCHAR bracketright
ENCODING 93
SWIDTH 386 0
DWIDTH 10 0
BBX 11 23 1 -4
BITMAP
0fe0
0fe0
0fc0
03c0
03c0
03c0
03c0
0780
0780
0780
0780
0780
0f00
0f00
0f00
0f00
0f00
1e00
1e00
1e00
fe00
fe00
fc00
ENDCHAR
STARTCHAR asciicircum
ENCODING 94
SWIDTH 687 0
DWIDTH 17 0
BBX 14 15 2 3
BITMAP
0040
0040
00e0
01e0
01e0
03e0
03f0
0770
0e70
0e30
1c38
3c38
3838
701c
f01c
ENDCHAR
STARTCHAR underscore
ENCODING 95
SWIDTH 500 0
DWIDTH 13 0
BBX 11 3 1 -3
BITMAP
ffe0
ffe0
ffe0
ENDCHAR
STARTCHAR grave
ENCODING 96
SWIDTH 663 0
DWIDTH 17 0
BBX 6 3 9 16
BITMAP
f0
38
1c
ENDCHAR
STARTCHAR a
ENCODING 97
SWIDTH 681 0
DWIDTH 17 0
BBX 16 13 2 0
BITMAP
01ff
07ff
0ffe
1f1e
3e3e
7c3e
787e
f8fc
f9bc
fb7c
ff7c
fe7c
78f8
ENDCHAR
STARTCHAR b
ENCODING 98
SWIDTH 681 0
DWIDTH 17 0
BBX 16 19 2 0
BITMAP
0f80
0f80
1f00
1f00
1f00
1f00
1e1e
3e3f
3e7f
3eff
3d9f
3f1f
7e1e
7c3e
7c3c
78f8
7ff0
ffe0
ff80
ENDCHAR
STARTCHAR c
ENCODING 99
SWIDTH 548 0
DWIDTH 14 0
BBX 13 13 2 0
BITMAP
01f0
07f8
1ff8
3f18
7c00
7c00
f800
f800
f800
fc30
ffe0
7fe0
1f80
ENDCHAR
STARTCHAR d
ENCODING 100
SWIDTH 681 0
DWIDTH 17 0
BBX 17 19 2 0
BITMAP
000f80
000f80
000f00
001f00
001f00
001f00
01ff00
07fe00
0ffe00
1f3e00
3e3e00
7c3e00
787c00
f8fc00
f9bc00
fb7c00
ff7c00
fe7800
78f800
ENDCHAR
STARTCHAR e
ENCODING 101
SWIDTH 612 0
DWIDTH 15 0
BBX 13 13 2 0
BITMAP
03e0
0ff0
1ff8
3cf8
78f0
7ff0
ffc0
ff00
f808
f838
fff8
7ff0
1f80
ENDCHAR
STARTCHAR f
ENCODING 102
SWIDTH 464 0
DWIDTH 12 0
BBX 15 24 1 -5
BITMAP
00fc
01fe
03fe
07c6
0f80
0f80
3ff0
3ff0
7ff0
1f00
1f00
1f00
3e00
3e00
3e00
3e00
3e00
7c00
7c00
7c00
7c00
7800
f800
f800
ENDCHAR
STARTCHAR g
ENCODING 103
SWIDTH 674 0
DWIDTH 17 0
BBX 16 18 1 -5
BITMAP
01ff
07ff
0fff
1f1e
3e3e
3c3e
7c7e
7cfe
7dbc
7fbc
7f7c
7e7c
3c7c
80f8
e0f8
fff0
7fe0
7f80
ENDCHAR
STARTCHAR h
ENCODING 104
SWIDTH 675 0
DWIDTH 17 0
BBX 15 19 2 0
BITMAP
0f00
1f00
1f00
1f00
1f00
1e00
3e1c
3e7e
3efe
3cfe
3dbe
7f3e
7e3c
7c7c
7c7c
787c
f87c
f8f8
f8f8
ENDCHAR
STARTCHAR i
ENCODING 105
SWIDTH 343 0
DWIDTH 9 0
BBX 9 19 2 0
BITMAP
0f80
0f80
1f00
1f00
0000
0000
1f00
3e00
3e00
3e00
3e00
3e00
7c00
7c00
7c00
7c00
7800
f800
f800
ENDCHAR
STARTCHAR j
ENCODING 106
SWIDTH 407 0
DWIDTH 10 0
BBX 15 24 -2 -5
BITMAP
003e
003e
003c
007c
0000
0000
007c
0078
00f8
00f8
00f8
00f8
00f0
01f0
01f0
01f0
01f0
03e0
03e0
03e0
c7c0
ff80
ff00
7c00
ENDCHAR
STARTCHAR k
ENCODING 107
SWIDTH 666 0
DWIDTH 17 0
BBX 16 19 2 0
BITMAP
0f80
0f00
1f00
1f00
1f00
1f00
1e0f
3e1e
3e3c
3e78
3ef0
3de0
7fe0
7df0
7df0
7cf8
78f8
f87c
f87c
ENDCHAR
STARTCHAR l
ENCODING 108
SWIDTH 343 0
DWIDTH 9 0
BBX 9 19 2 0
BITMAP
0f80
0f80
1f00
1f00
1f00
1f00
1f00
3e00
3e00
3e00
3e00
3e00
7c00
7c00
7c00
7c00
7c00
f800
f800
ENDCHAR
STARTCHAR m
ENCODING 109
SWIDTH 991 0
DWIDTH 25 0
BBX 23 13 2 0
BITMAP
1e3c3c
3e7e7e
3cfefe
3dfdfe
3fbfbe
3f3f3c
7e3f3c
7e7e3c
7c7c7c
78787c
787878
f87878
f8f8f8
ENDCHAR
STARTCHAR n
ENCODING 110
SWIDTH 675 0
DWIDTH 17 0
BBX 15 13 2 0
BITMAP
1e1c
3e7e
3efe
3dfe
3dbe
3f3e
7e3c
7c7c
7c7c
787c
787c
f8f8
f8f8
ENDCHAR
STARTCHAR o
ENCODING 111
SWIDTH 663 0
DWIDTH 17 0
BBX 15 13 2 0
BITMAP
01f8
0ffc
1ffe
3e3e
7c3e
783e
f83e
f83e
f87c
fcf8
fff0
7fe0
1f80
ENDCHAR
STARTCHAR p
ENCODING 112
SWIDTH 681 0
DWIDTH 17 0
BBX 17 18 1 -5
BITMAP
0f8f00
1f3f80
1f7f80
1f6f80
1ecf80
1f8f80
3f0f00
3e1f00
3e3e00
3c7c00
3ff800
7ff000
7fc000
7c0000
7c0000
780000
f80000
f80000
ENDCHAR
STARTCHAR q
ENCODING 113
SWIDTH 681 0
DWIDTH 17 0
BBX 16 18 2 -5
BITMAP
01ff
07ff
0ffe
1f1e
3e3e
7c3e
787e
f8fc
f9bc
ff7c
ff7c
fe7c
7878
00f8
00f8
00f8
00f8
01f0
ENDCHAR
STARTCHAR r
ENCODING 114
SWIDTH 542 0
DWIDTH 14 0
BBX 14 13 2 0
BITMAP
1f1c
3e38
3e78
3ef8
3dc0
3f00
7e00
7e00
7c00
7c00
7800
f800
f800
ENDCHAR
STARTCHAR s
ENCODING 115
SWIDTH 527 0
DWIDTH 13 0
BBX 13 13 1 0
BITMAP
07f8
0ff8
1ff0
1f00
1e00
1f80
0fc0
03e0
01f0
41f0
ffe0
ffe0
7f80
ENDCHAR
STARTCHAR t
ENCODING 116
SWIDTH 437 0
DWIDTH 11 0
BBX 9 17 3 0
BITMAP
0600
3e00
3e00
3e00
ff80
ff80
ff80
7c00
7c00
7c00
7c00
7800
f800
f800
ff00
fe00
7e00
ENDCHAR
STARTCHAR u
ENCODING 117
SWIDTH 675 0
DWIDTH 17 0
BBX 15 13 3 0
BITMAP
3e3e
3c3e
7c3c
7c3c
7c7c
7c7c
78fc
f9f8
fb78
ff78
fef8
fcf8
70f0
ENDCHAR
STARTCHAR v
ENCODING 118
SWIDTH 630 0
DWIDTH 16 0
BBX 15 13 3 0
BITMAP
f81e
f81c
f83c
7878
7c70
7cf0
7ce0
7de0
3fc0
3f80
3f80
3f00
3f00
ENDCHAR
STARTCHAR w
ENCODING 119
SWIDTH 878 0
DWIDTH 22 0
BBX 21 13 3 0
BITMAP
f07878
f0f870
f0f8f0
f1f8e0
f3f9e0
f3f9c0
f7fbc0
ff7b80
fe7f80
fe7f00
fc3e00
fc3e00
783c00
ENDCHAR
STARTCHAR x
ENCODING 120
SWIDTH 563 0
DWIDTH 14 0
BBX 16 13 0 0
BITMAP
1f0f
0f9e
0fbc
0ff8
07f0
07e0
03e0
07e0
0ff0
1ff0
3df0
78f8
f0f8
ENDCHAR
STARTCHAR y
ENCODING 121
SWIDTH 633 0
DWIDTH 16 0
BBX 17 18 1 -5
BITMAP
3e0780
3e0f00
3e0e00
1e1e00
1f3c00
1f3800
1f7800
1ff000
0fe000
0fe000
0fc000
0f8000
0f8000
0f0000
1e0000
3e0000
7c0000
f80000
ENDCHAR
STARTCHAR z
ENCODING 122
SWIDTH 630 0
DWIDTH 16 0
BBX 15 13 1 0
BITMAP
1ffe
1ffe
3ffc
00fc
01f8
03e0
07c0
0f80
3f00
7e00
7ffc
fff8
fff8
ENDCHAR
STARTCHAR braceleft
ENCODING 123
SWIDTH 386 0
DWIDTH 10 0
BBX 10 23 2 -4
BITMAP
03c0
0fc0
0f80
1f00
1f00
1f00
0f00
0f00
0f00
1e00
7c00
7000
f800
3c00
3c00
3c00
7c00
7c00
f800
f800
fc00
7c00
3800
ENDCHAR
STARTCHAR bar
ENCODING 124
SWIDTH 259 0
DWIDTH 6 0
BBX 7 23 1 -4
BITMAP
0e
0e
0e
0c
1c
1c
1c
1c
18
18
38
38
38
30
30
70
70
70
70
60
e0
e0
e0
ENDCHAR
STARTCHAR braceright
ENCODING 125
SWIDTH 386 0
DWIDTH 10 0
BBX 10 23 1 -4
BITMAP
0f00
0f80
0fc0
07c0
07c0
0f80
0f80
0f00
0f00
0f00
0fc0
0380
0f80
1e00
3c00
3c00
3c00
3e00
3e00
3e00
fc00
fc00
f000
ENDCHAR
STARTCHAR asciitilde
ENCODING 126
SWIDTH 687 0
DWIDTH 17 0
BBX 15 6 3 4
BITMAP
3c06
7f0e
7f8c
e3fc
e1fc
c078
ENDCHAR
STARTCHAR nobreakspace
ENCODING 160
SWIDTH 343 0
DWIDTH 9 0
BBX 1 1 0 0
BITMAP
00
ENDCHAR
STARTCHAR Aogonek
ENCODING 161
SWIDTH 771 0
DWIDTH 19 0
BBX 18 21 1 -3
BITMAP
003e00
007e00
007e00
00fe00
01fe00
01df00
03df00
039f00
078f00
070f00
0f0f80
0fff80
1fff80
1fff80
380780
3807c0
7007c0
f007c0
01c000
038000
03e000
ENDCHAR
STARTCHAR breve
ENCODING 162
SWIDTH 663 0
DWIDTH 17 0
BBX 9 3 8 16
BITMAP
e380
ff00
7c00
ENDCHAR
STARTCHAR Lstroke
ENCODING 163
SWIDTH 623 0
DWIDTH 16 0
BBX 15 18 1 0
BITMAP
07c0
07c0
0780
0f80
0f80
0fa0
0fe0
0fe0
1fc0
7f00
7f00
ff00
de00
3e00
3e00
3ffe
3ffe
7ffe
ENDCHAR
STARTCHAR currency
ENCODING 164
SWIDTH 687 0
DWIDTH 17 0
BBX 20 18 0 0
BITMAP
040020
1c0060
1c00f0
0e01e0
0f7b80
07ff00
07fe00
079e00
070f00
0f0e00
070e00
079e00
0ffc00
1ffe00
3de700
f80780
600380
400200
ENDCHAR
STARTCHAR Lcaron
ENCODING 165
SWIDTH 720 0
DWIDTH 18 0
BBX 16 21 2 0
BITMAP
001f
001f
001f
0f9e
1f1e
1f0e
1f0e
1f3c
1f38
3e00
3e00
3e00
3e00
3c00
7c00
7c00
7c00
7c00
7ffc
fffc
fffc
ENDCHAR
STARTCHAR Sacute
ENCODING 166
SWIDTH 639 0
DWIDTH 16 0
BBX 15 22 2 0
BITMAP
001e
0038
00e0
0000
01fc
07fe
1ffe
1f04
3e00
3e00
1f80
1fc0
0fe0
07f8
01f8
00fc
00fc
00fc
40f8
fff0
ffe0
ff80
ENDCHAR
STARTCHAR section
ENCODING 167
SWIDTH 687 0
DWIDTH 17 0
BBX 15 23 3 -5
BITMAP
03fc
0ffe
0ffe
1f06
1f00
1f80
1fc0
0ff0
1ff8
1dfc
3c7c
3c3c
3e3c
3fb8
1ff0
0ff0
03f8
01f8
00f8
41f0
fff0
ffe0
7f80
ENDCHAR
STARTCHAR diaeresis
ENCODING 168
SWIDTH 663 0
DWIDTH 17 0
BBX 9 3 8 15
BITMAP
7380
e380
e700
ENDCHAR
STARTCHAR Scaron
ENCODING 169
SWIDTH 639 0
DWIDTH 16 0
BBX 15 22 2 0
BITMAP
038e
01f8
00f0
0000
01fc
07fe
1ffe
1f04
3e00
3e00
1f80
1fc0
0fe0
07f8
01f8
00fc
00fc
00fc
40f8
fff0
ffe0
ff80
ENDCHAR
STARTCHAR Scedilla
ENCODING 170
SWIDTH 639 0
DWIDTH 16 0
BBX 15 23 2 -5
BITMAP
01fc
07fe
1ffe
1f04
3e00
3e00
1f80
1fc0
0fe0
07f8
01f8
00fc
00fc
00fc
40f8
fff0
ffe0
ff80
01c0
0380
01c0
00c0
0780
ENDCHAR
STARTCHAR Tcaron
ENCODING 171
SWIDTH 747 0
DWIDTH 19 0
BBX 19 22 3 0
BITMAP
038e00
01f800
00f000
000000
ffffe0
ffffe0
ffffe0
01f000
03e000
03e000
03e000
03e000
03e000
07c000
07c000
07c000
07c000
07c000
0f8000
0f8000
0f8000
0f8000
ENDCHAR
STARTCHAR Zacute
ENCODING 172
SWIDTH 687 0
DWIDTH 17 0
BBX 17 22 2 0
BITMAP
000f00
001c00
007000
000000
0fff80
0fff80
0fff80
003f00
007e00
00fc00
00fc00
01f800
03f000
07e000
0fc000
1f8000
1f8000
3f0000
7e0000
7ffc00
fffc00
fffc00
ENDCHAR
STARTCHAR hyphen
ENCODING 173
SWIDTH 289 0
DWIDTH 7 0
BBX 6 3 2 6
BITMAP
fc
fc
fc
ENDCHAR
STARTCHAR Zcaron
ENCODING 174
SWIDTH 687 0
DWIDTH 17 0
BBX 17 22 2 0
BITMAP
01c700
00fc00
007800
000000
0fff80
0fff80
0fff80
003f00
007e00
00fc00
00fc00
01f800
03f000
07e000
0fc000
1f8000
1f8000
3f0000
7e0000
7ffc00
fffc00
fffc00
ENDCHAR
STARTCHAR Zabovedot
ENCODING 175
SWIDTH 687 0
DWIDTH 17 0
BBX 17 22 2 0
BITMAP
003800
007800
007000
000000
0fff80
0fff80
0fff80
003f00
007e00
00fc00
00fc00
01f800
03f000
07e000
0fc000
1f8000
1f8000
3f0000
7e0000
7ffc00
fffc00
fffc00
ENDCHAR
STARTCHAR degree
ENCODING 176
SWIDTH 241 0
DWIDTH 6 0
BBX 4 4 4 14
BITMAP
70
90
90
70
ENDCHAR
STARTCHAR aogonek
ENCODING 177
SWIDTH 681 0
DWIDTH 17 0
BBX 16 16 2 -3
BITMAP
01ff
07ff
0ffe
1f1e
3e3e
7c3e
787e
f8fc
f9bc
fb7c
ff7c
fe7c
78f8
0380
0700
07c0
ENDCHAR
STARTCHAR ogonek
ENCODING 178
SWIDTH 663 0
DWIDTH 17 0
BBX 5 3 5 -4
BITMAP
70
e0
f8
ENDCHAR
STARTCHAR lstroke
ENCODING 179
SWIDTH 343 0
DWIDTH 9 0
BBX 11 19 1 0
BITMAP
07c0
0780
0f80
0f80
0f80
0fe0
0fe0
0fc0
1f80
3f00
7f00
fe00
de00
be00
3e00
3e00
3c00
3c00
7c00
ENDCHAR
STARTCHAR acute
ENCODING 180
SWIDTH 663 0
DWIDTH 17 0
BBX 7 3 9 16
BITMAP
1e
38
e0
ENDCHAR
STARTCHAR lcaron
ENCODING 181
SWIDTH 640 0
DWIDTH 16 0
BBX 16 22 2 0
BITMAP
001f
001f
001f
0f9e
0f9e
1f0e
1f0e
1f3c
1f38
1f00
3e00
3e00
3e00
3e00
3e00
7c00
7c00
7c00
7c00
7c00
f800
f800
ENDCHAR
STARTCHAR sacute
ENCODING 182
SWIDTH 527 0
DWIDTH 13 0
BBX 14 17 1 0
BITMAP
003c
0070
01c0
0000
07f8
0ff8
1ff0
1f00
1e00
1f80
0fc0
03e0
01f0
41f0
ffe0
ffe0
7f80
ENDCHAR
STARTCHAR caron
ENCODING 183
SWIDTH 663 0
DWIDTH 17 0
BBX 9 3 8 16
BITMAP
e380
7e00
3c00
ENDCHAR
STARTCHAR cedilla
ENCODING 184
SWIDTH 663 0
DWIDTH 17 0
BBX 5 5 5 -5
BITMAP
38
70
38
18
f0
ENDCHAR
STARTCHAR scaron
ENCODING 185
SWIDTH 527 0
DWIDTH 13 0
BBX 14 17 1 0
BITMAP
071c
03f0
01e0
0000
07f8
0ff8
1ff0
1f00
1e00
1f80
0fc0
03e0
01f0
41f0
ffe0
ffe0
7f80
ENDCHAR
STARTCHAR scedilla
ENCODING 186
SWIDTH 527 0
DWIDTH 13 0
BBX 13 18 1 -5
BITMAP
07f8
0ff8
1ff0
1f00
1e00
1f80
0fc0
03e0
01f0
41f0
ffe0
ffe0
7f80
0380
0700
0380
0180
0f00
ENDCHAR
STARTCHAR tcaron
ENCODING 187
SWIDTH 640 0
DWIDTH 16 0
BBX 14 23 3 0
BITMAP
007c
007c
007c
0078
0078
0038
0638
3ef0
3ee0
3e00
ff80
ff80
ff80
7c00
7c00
7c00
7c00
7800
f800
f800
ff00
fe00
7e00
ENDCHAR
STARTCHAR zacute
ENCODING 188
SWIDTH 630 0
DWIDTH 16 0
BBX 15 17 1 0
BITMAP
003c
0070
01c0
0000
1ffe
1ffe
3ffc
00fc
01f8
03e0
07c0
0f80
3f00
7e00
7ffc
fff8
fff8
ENDCHAR
STARTCHAR doubleacute
ENCODING 189
SWIDTH 663 0
DWIDTH 17 0
BBX 10 3 8 16
BITMAP
1dc0
3300
ee00
ENDCHAR
STARTCHAR zcaron
ENCODING 190
SWIDTH 630 0
DWIDTH 16 0
BBX 15 17 1 0
BITMAP
071c
03f0
01e0
0000
1ffe
1ffe
3ffc
00fc
01f8
03e0
07c0
0f80
3f00
7e00
7ffc
fff8
fff8
ENDCHAR
STARTCHAR zabovedot
ENCODING 191
SWIDTH 630 0
DWIDTH 16 0
BBX 15 17 1 0
BITMAP
00e0
01e0
01c0
0000
1ffe
1ffe
3ffc
00fc
01f8
03e0
07c0
0f80
3f00
7e00
7ffc
fff8
fff8
ENDCHAR
STARTCHAR Racute
ENCODING 192
SWIDTH 708 0
DWIDTH 18 0
BBX 16 22 2 0
BITMAP
001e
0038
00e0
0000
1ffc
1fff
1fff
1e1f
1e1f
3e1f
3e3e
3c7c
3ff8
3ff0
7ff0
7cf0
7cf8
78f8
7878
f87c
f87c
f83e
ENDCHAR
STARTCHAR Aacute
ENCODING 193
SWIDTH 771 0
DWIDTH 19 0
BBX 18 22 1 0
BITMAP
000780
000e00
003800
000000
003e00
007e00
007e00
00fe00
01fe00
01df00
03df00
039f00
078f00
070f00
0f0f80
0fff80
1fff80
1fff80
380780
3807c0
7007c0
f007c0
ENDCHAR
STARTCHAR Acircumflex
ENCODING 194
SWIDTH 771 0
DWIDTH 19 0
BBX 18 22 1 0
BITMAP
001e00
003f00
00e380
000000
003e00
007e00
007e00
00fe00
01fe00
01df00
03df00
039f00
078f00
070f00
0f0f80
0fff80
1fff80
1fff80
380780
3807c0
7007c0
f007c0
ENDCHAR
STARTCHAR Abreve
ENCODING 195
SWIDTH 771 0
DWIDTH 19 0
BBX 18 22 1 0
BITMAP
0071c0
007f80
003e00
000000
003e00
007e00
007e00
00fe00
01fe00
01df00
03df00
039f00
078f00
070f00
0f0f80
0fff80
1fff80
1fff80
380780
3807c0
7007c0
f007c0
ENDCHAR
STARTCHAR Adiaeresis
ENCODING 196
SWIDTH 771 0
DWIDTH 19 0
BBX 18 22 1 0
BITMAP
0039c0
0071c0
007380
000000
003e00
007e00
007e00
00fe00
01fe00
01df00
03df00
039f00
078f00
070f00
0f0f80
0fff80
1fff80
1fff80
380780
3807c0
7007c0
f007c0
ENDCHAR
STARTCHAR Lacute
ENCODING 197
SWIDTH 623 0
DWIDTH 16 0
BBX 14 22 2 0
BITMAP
00f0
01c0
0700
0000
0f80
1f00
1f00
1f00
1f00
1f00
3e00
3e00
3e00
3e00
3c00
7c00
7c00
7c00
7c00
7ffc
fffc
fffc
ENDCHAR
STARTCHAR Cacute
ENCODING 198
SWIDTH 737 0
DWIDTH 18 0
BBX 18 22 2 0
BITMAP
000780
000e00
003800
000000
007f80
03ffc0
07ffc0
0fc080
1f0000
3e0000
7c0000
7c0000
780000
f80000
f80000
f80000
f80000
fc0000
7e0600
7ffe00
3ffe00
0ff800
ENDCHAR
STARTCHAR Ccedilla
ENCODING 199
SWIDTH 737 0
DWIDTH 18 0
BBX 18 23 2 -5
BITMAP
007f80
03ffc0
07ffc0
0fc080
1f0000
3e0000
7c0000
7c0000
780000
f80000
f80000
f80000
f80000
fc0000
7e0600
7ffe00
3ffe00
0ff800
030000
070000
038000
018000
0f0000
ENDCHAR
STARTCHAR Ccaron
ENCODING 200
SWIDTH 737 0
DWIDTH 18 0
BBX 18 22 2 0
BITMAP
00e380
007e00
003c00
000000
007f80
03ffc0
07ffc0
0fc080
1f0000
3e0000
7c0000
7c0000
780000
f80000
f80000
f80000
f80000
fc0000
7e0600
7ffe00
3ffe00
0ff800
ENDCHAR
STARTCHAR Eacute
ENCODING 201
SWIDTH 642 0
DWIDTH 16 0
BBX 16 22 2 0
BITMAP
003c
0070
01c0
0000
0fff
1fff
1ffe
1f00
1f00
1e00
3e00
3ff8
3ff8
3ff8
3c00
7c00
7c00
7c00
7c00
7ffc
fff8
fff8
ENDCHAR
STARTCHAR Eogonek
ENCODING 202
SWIDTH 642 0
DWIDTH 16 0
BBX 16 21 2 -3
BITMAP
0fff
1fff
1ffe
1f00
1f00
1e00
3e00
3ff8
3ff8
3ff8
3c00
7c00
7c00
7c00
7c00
7ffc
fff8
fff8
0380
0700
07c0
ENDCHAR
STARTCHAR Ediaeresis
ENCODING 203
SWIDTH 642 0
DWIDTH 16 0
BBX 16 22 2 0
BITMAP
039c
071c
0738
0000
0fff
1fff
1ffe
1f00
1f00
1e00
3e00
3ff8
3ff8
3ff8
3c00
7c00
7c00
7c00
7c00
7ffc
fff8
fff8
ENDCHAR
STARTCHAR Ecaron
ENCODING 204
SWIDTH 642 0
DWIDTH 16 0
BBX 16 22 2 0
BITMAP
038e
01f8
00f0
0000
0fff
1fff
1ffe
1f00
1f00
1e00
3e00
3ff8
3ff8
3ff8
3c00
7c00
7c00
7c00
7c00
7ffc
fff8
fff8
ENDCHAR
STARTCHAR Iacute
ENCODING 205
SWIDTH 361 0
DWIDTH 9 0
BBX 10 22 2 0
BITMAP
03c0
0700
1c00
0000
1f00
1f00
1f00
1e00
1e00
3e00
3e00
3e00
3c00
3c00
7c00
7c00
7c00
7800
7800
f800
f800
f800
ENDCHAR
STARTCHAR Icircumflex
ENCODING 206
SWIDTH 361 0
DWIDTH 9 0
BBX 10 22 2 0
BITMAP
0f00
1f80
71c0
0000
1f00
1f00
1f00
1e00
1e00
3e00
3e00
3e00
3c00
3c00
7c00
7c00
7c00
7800
7800
f800
f800
f800
ENDCHAR
STARTCHAR Dcaron
ENCODING 207
SWIDTH 822 0
DWIDTH 21 0
BBX 20 22 2 0
BITMAP
00e380
007e00
003c00
000000
0fff00
1fffc0
1fffe0
1f07f0
1f03f0
1f01f0
3e01f0
3e01f0
3e01f0
3e03f0
3c03e0
7c03e0
7c07c0
7c0fc0
7c3f80
7fff00
fffc00
fff000
ENDCHAR
STARTCHAR Dstroke
ENCODING 208
SWIDTH 822 0
DWIDTH 21 0
BBX 20 18 1 0
BITMAP
0fff80
0fffc0
0fffe0
0f07f0
1f03f0
1f01f0
1f01f0
ffe1f0
ffe1f0
ffe1f0
3e03e0
3e03e0
3e07c0
3c0fc0
7c3f80
7fff00
7ffe00
7ff000
ENDCHAR
STARTCHAR Nacute
ENCODING 209
SWIDTH 789 0
DWIDTH 20 0
BBX 19 22 2 0
BITMAP
000780
000e00
003800
000000
1f01e0
1f01e0
1f81e0
1f81c0
1fc3c0
3fc3c0
3fe3c0
3fe3c0
3df380
39f780
78ff80
78ff80
787f80
787f00
703f00
f03f00
f01f00
f01f00
ENDCHAR
STARTCHAR Ncaron
ENCODING 210
SWIDTH 789 0
DWIDTH 20 0
BBX 19 22 2 0
BITMAP
00e380
007e00
003c00
000000
1f01e0
1f01e0
1f81e0
1f81c0
1fc3c0
3fc3c0
3fe3c0
3fe3c0
3df380
39f780
78ff80
78ff80
787f80
787f00
703f00
f03f00
f01f00
f01f00
ENDCHAR
STARTCHAR Oacute
ENCODING 211
SWIDTH 855 0
DWIDTH 21 0
BBX 20 22 2 0
BITMAP
000f00
001c00
007000
000000
007f00
03ffc0
07ffe0
0f87e0
1f03f0
3e01f0
7c01f0
7c01f0
f801f0
f801f0
f803e0
f803e0
f807c0
fc0f80
7e1f00
7ffe00
3ffc00
0fe000
ENDCHAR
STARTCHAR Ocircumflex
ENCODING 212
SWIDTH 855 0
DWIDTH 21 0
BBX 20 22 2 0
BITMAP
003c00
007e00
01c700
000000
007f00
03ffc0
07ffe0
0f87e0
1f03f0
3e01f0
7c01f0
7c01f0
f801f0
f801f0
f803e0
f803e0
f807c0
fc0f80
7e1f00
7ffe00
3ffc00
0fe000
ENDCHAR
STARTCHAR Odoubleacute
ENCODING 213
SWIDTH 855 0
DWIDTH 21 0
BBX 20 22 2 0
BITMAP
000ee0
001980
007700
000000
007f00
03ffc0
07ffe0
0f87e0
1f03f0
3e01f0
7c01f0
7c01f0
f801f0
f801f0
f803e0
f803e0
f807c0
fc0f80
7e1f00
7ffe00
3ffc00
0fe000
ENDCHAR
STARTCHAR Odiaeresis
ENCODING 214
SWIDTH 855 0
DWIDTH 21 0
BBX 20 22 2 0
BITMAP
007380
00e380
00e700
000000
007f00
03ffc0
07ffe0
0f87e0
1f03f0
3e01f0
7c01f0
7c01f0
f801f0
f801f0
f803e0
f803e0
f807c0
fc0f80
7e1f00
7ffe00
3ffc00
0fe000
ENDCHAR
STARTCHAR multiply
ENCODING 215
SWIDTH 687 0
DWIDTH 17 0
BBX 17 15 2 0
BITMAP
080100
380300
1c0f80
0e1e00
0f3c00
07f800
03f000
03e000
07e000
0ff000
1e7800
3c3800
f81c00
600e00
400800
ENDCHAR
STARTCHAR Rcaron
ENCODING 216
SWIDTH 708 0
DWIDTH 18 0
BBX 16 22 2 0
BITMAP
038e
01f8
00f0
0000
1ffc
1fff
1fff
1e1f
1e1f
3e1f
3e3e
3c7c
3ff8
3ff0
7ff0
7cf0
7cf8
78f8
7878
f87c
f87c
f83e
ENDCHAR
STARTCHAR Uring
ENCODING 217
SWIDTH 759 0
DWIDTH 19 0
BBX 18 23 3 0
BITMAP
003000
004800
004800
003000
000000
3e03c0
3e07c0
3e0780
3e0780
3c0780
7c0780
7c0f80
7c0f00
780f00
f80f00
f80f00
f81f00
f81e00
f81e00
fc3c00
7ffc00
3ff800
0fe000
ENDCHAR
STARTCHAR Uacute
ENCODING 218
SWIDTH 759 0
DWIDTH 19 0
BBX 18 22 3 0
BITMAP
001e00
003800
00e000
000000
3e03c0
3e07c0
3e0780
3e0780
3c0780
7c0780
7c0f80
7c0f00
780f00
f80f00
f80f00
f81f00
f81e00
f81e00
fc3c00
7ffc00
3ff800
0fe000
ENDCHAR
STARTCHAR Udoubleacute
ENCODING 219
SWIDTH 759 0
DWIDTH 19 0
BBX 18 22 3 0
BITMAP
003b80
006600
01dc00
000000
3e03c0
3e07c0
3e0780
3e0780
3c0780
7c0780
7c0f80
7c0f00
780f00
f80f00
f80f00
f81f00
f81e00
f81e00
fc3c00
7ffc00
3ff800
0fe000
ENDCHAR
STARTCHAR Udiaeresis
ENCODING 220
SWIDTH 759 0
DWIDTH 19 0
BBX 18 22 3 0
BITMAP
01ce00
038e00
039c00
000000
3e03c0
3e07c0
3e0780
3e0780
3c0780
7c0780
7c0f80
7c0f00
780f00
f80f00
f80f00
f81f00
f81e00
f81e00
fc3c00
7ffc00
3ff800
0fe000
ENDCHAR
STARTCHAR Yacute
ENCODING 221
SWIDTH 681 0
DWIDTH 17 0
BBX 16 22 4 0
BITMAP
0078
00e0
0380
0000
f80f
781e
7c3c
7c38
3c78
3ef0
3fe0
1fc0
1f80
1f80
1f00
1f00
1f00
1f00
1f00
3e00
3e00
3e00
ENDCHAR
STARTCHAR Tcedilla
ENCODING 222
SWIDTH 747 0
DWIDTH 19 0
BBX 19 23 3 -5
BITMAP
ffffe0
ffffe0
ffffe0
01f000
03e000
03e000
03e000
03e000
03e000
07c000
07c000
07c000
07c000
07c000
0f8000
0f8000
0f8000
0f8000
007000
00e000
007000
003000
01e000
ENDCHAR
STARTCHAR ssharp
ENCODING 223
SWIDTH 708 0
DWIDTH 18 0
BBX 17 24 1 -5
BITMAP
00fc00
03ff00
07ff00
07cf00
0f8f00
0f9e00
0f9c00
1f3800
1f3800
1f7c00
1f7e00
1e3f00
3e1f00
3e0f80
3e0780
3e8780
3cff80
7cff00
7cfc00
7c0000
7c0000
780000
f80000
f80000
ENDCHAR
STARTCHAR racute
ENCODING 224
SWIDTH 542 0
DWIDTH 14 0
BBX 14 17 2 0
BITMAP
003c
0070
01c0
0000
1f1c
3e38
3e78
3ef8
3dc0
3f00
7e00
7e00
7c00
7c00
7800
f800
f800
ENDCHAR
STARTCHAR aacute
ENCODING 225
SWIDTH 681 0
DWIDTH 17 0
BBX 16 17 2 0
BITMAP
001e
0038
00e0
0000
01ff
07ff
0ffe
1f1e
3e3e
7c3e
787e
f8fc
f9bc
fb7c
ff7c
fe7c
78f8
ENDCHAR
STARTCHAR acircumflex
ENCODING 226
SWIDTH 681 0
DWIDTH 17 0
BBX 16 17 2 0
BITMAP
0078
00fc
038e
0000
01ff
07ff
0ffe
1f1e
3e3e
7c3e
787e
f8fc
f9bc
fb7c
ff7c
fe7c
78f8
ENDCHAR
STARTCHAR abreve
ENCODING 227
SWIDTH 681 0
DWIDTH 17 0
BBX 16 17 2 0
BITMAP
01c7
01fe
00f8
0000
01ff
07ff
0ffe
1f1e
3e3e
7c3e
787e
f8fc
f9bc
fb7c
ff7c
fe7c
78f8
ENDCHAR
STARTCHAR adiaeresis
ENCODING 228
SWIDTH 681 0
DWIDTH 17 0
BBX 16 17 2 0
BITMAP
01ce
038e
039c
0000
01ff
07ff
0ffe
1f1e
3e3e
7c3e
787e
f8fc
f9bc
fb7c
ff7c
fe7c
78f8
ENDCHAR
STARTCHAR lacute
ENCODING 229
SWIDTH 343 0
DWIDTH 9 0
BBX 12 23 2 0
BITMAP
00f0
01c0
0700
0000
0f80
0f80
1f00
1f00
1f00
1f00
1f00
3e00
3e00
3e00
3e00
3e00
7c00
7c00
7c00
7c00
7c00
f800
f800
ENDCHAR
STARTCHAR cacute
ENCODING 230
SWIDTH 548 0
DWIDTH 14 0
BBX 14 17 2 0
BITMAP
003c
0070
01c0
0000
01f0
07f8
1ff8
3f18
7c00
7c00
f800
f800
f800
fc30
ffe0
7fe0
1f80
ENDCHAR
STARTCHAR ccedilla
ENCODING 231
SWIDTH 548 0
DWIDTH 14 0
BBX 13 18 2 -5
BITMAP
01f0
07f8
1ff8
3f18
7c00
7c00
f800
f800
f800
fc30
ffe0
7fe0
1f80
0c00
1c00
0e00
0600
3c00
ENDCHAR
STARTCHAR ccaron
ENCODING 232
SWIDTH 548 0
DWIDTH 14 0
BBX 14 17 2 0
BITMAP
071c
03f0
01e0
0000
01f0
07f8
1ff8
3f18
7c00
7c00
f800
f800
f800
fc30
ffe0
7fe0
1f80
ENDCHAR
STARTCHAR eacute
ENCODING 233
SWIDTH 612 0
DWIDTH 15 0
BBX 14 17 2 0
BITMAP
003c
0070
01c0
0000
03e0
0ff0
1ff8
3cf8
78f0
7ff0
ffc0
ff00
f808
f838
fff8
7ff0
1f80
ENDCHAR
STARTCHAR eogonek
ENCODING 234
SWIDTH 612 0
DWIDTH 15 0
BBX 13 16 2 -3
BITMAP
03e0
0ff0
1ff8
3cf8
78f0
7ff0
ffc0
ff00
f808
f838
fff8
7ff0
1f80
0700
0e00
0f80
ENDCHAR
STARTCHAR ediaeresis
ENCODING 235
SWIDTH 612 0
DWIDTH 15 0
BBX 14 17 2 0
BITMAP
039c
071c
0738
0000
03e0
0ff0
1ff8
3cf8
78f0
7ff0
ffc0
ff00
f808
f838
fff8
7ff0
1f80
ENDCHAR
STARTCHAR ecaron
ENCODING 236
SWIDTH 612 0
DWIDTH 15 0
BBX 14 17 2 0
BITMAP
071c
03f0
01e0
0000
03e0
0ff0
1ff8
3cf8
78f0
7ff0
ffc0
ff00
f808
f838
fff8
7ff0
1f80
ENDCHAR
STARTCHAR iacute
ENCODING 237
SWIDTH 343 0
DWIDTH 9 0
BBX 11 17 2 0
BITMAP
01e0
0380
0e00
0000
1f00
1f00
3e00
3e00
3e00
3e00
7e00
7c00
7c00
7c00
7c00
f800
f800
ENDCHAR
STARTCHAR icircumflex
ENCODING 238
SWIDTH 343 0
DWIDTH 9 0
BBX 11 17 2 0
BITMAP
0780
0fc0
38e0
0000
1f00
1f00
3e00
3e00
3e00
3e00
7e00
7c00
7c00
7c00
7c00
f800
f800
ENDCHAR
STARTCHAR dcaron
ENCODING 239
SWIDTH 960 0
DWIDTH 24 0
BBX 24 22 2 0
BITMAP
00001f
00001f
00001f
000f9e
000f9e
000f0e
001f0e
001f3c
001f38
01ff00
07fe00
0ffe00
1f3e00
3e3e00
7c3e00
787c00
f8fc00
f9bc00
fb7c00
ff7c00
fe7800
78f800
ENDCHAR
STARTCHAR dstroke
ENCODING 240
SWIDTH 880 0
DWIDTH 22 0
BBX 22 19 2 0
BITMAP
000f80
000f80
000f00
07fffc
07fffc
001f00
01ff00
07fe00
0ffe00
1f3e00
3e3e00
7c3e00
787c00
f8fc00
f9bc00
fb7c00
ff7c00
fe7800
78f800
ENDCHAR
STARTCHAR nacute
ENCODING 241
SWIDTH 675 0
DWIDTH 17 0
BBX 15 17 2 0
BITMAP
003c
0070
01c0
0000
1e1c
3e7e
3efe
3dfe
3dbe
3f3e
7e3c
7c7c
7c7c
787c
787c
f8f8
f8f8
ENDCHAR
STARTCHAR ncaron
ENCODING 242
SWIDTH 675 0
DWIDTH 17 0
BBX 15 17 2 0
BITMAP
071c
03f0
01e0
0000
1e1c
3e7e
3efe
3dfe
3dbe
3f3e
7e3c
7c7c
7c7c
787c
787c
f8f8
f8f8
ENDCHAR
STARTCHAR oacute
ENCODING 243
SWIDTH 663 0
DWIDTH 17 0
BBX 15 17 2 0
BITMAP
003c
0070
01c0
0000
01f8
0ffc
1ffe
3e3e
7c3e
783e
f83e
f83e
f87c
fcf8
fff0
7fe0
1f80
ENDCHAR
STARTCHAR ocircumflex
ENCODING 244
SWIDTH 663 0
DWIDTH 17 0
BBX 15 17 2 0
BITMAP
00f0
01f8
071c
0000
01f8
0ffc
1ffe
3e3e
7c3e
783e
f83e
f83e
f87c
fcf8
fff0
7fe0
1f80
ENDCHAR
STARTCHAR odoubleacute
ENCODING 245
SWIDTH 663 0
DWIDTH 17 0
BBX 16 17 2 0
BITMAP
0077
00cc
03b8
0000
01f8
0ffc
1ffe
3e3e
7c3e
783e
f83e
f83e
f87c
fcf8
fff0
7fe0
1f80
ENDCHAR
STARTCHAR odiaeresis
ENCODING 246
SWIDTH 663 0
DWIDTH 17 0
BBX 15 17 2 0
BITMAP
01ce
038e
039c
0000
01f8
0ffc
1ffe
3e3e
7c3e
783e
f83e
f83e
f87c
fcf8
fff0
7fe0
1f80
ENDCHAR
STARTCHAR division
ENCODING 247
SWIDTH 687 0
DWIDTH 17 0
BBX 15 15 3 0
BITMAP
01e0
01c0
03c0
0000
0000
0000
fffe
fffe
fffc
0000
0000
0000
0780
0700
0f00
ENDCHAR
STARTCHAR rcaron
ENCODING 248
SWIDTH 542 0
DWIDTH 14 0
BBX 14 17 2 0
BITMAP
071c
03f0
01e0
0000
1f1c
3e38
3e78
3ef8
3dc0
3f00
7e00
7e00
7c00
7c00
7800
f800
f800
ENDCHAR
STARTCHAR uring
ENCODING 249
SWIDTH 675 0
DWIDTH 17 0
BBX 15 18 3 0
BITMAP
00c0
0120
0120
00c0
0000
3e3e
3c3e
7c3c
7c3c
7c7c
7c7c
78fc
f9f8
fb78
ff78
fef8
fcf8
70f0
ENDCHAR
STARTCHAR uacute
ENCODING 250
SWIDTH 675 0
DWIDTH 17 0
BBX 15 17 3 0
BITMAP
003c
0070
01c0
0000
3e3e
3c3e
7c3c
7c3c
7c7c
7c7c
78fc
f9f8
fb78
ff78
fef8
fcf8
70f0
ENDCHAR
STARTCHAR udoubleacute
ENCODING 251
SWIDTH 675 0
DWIDTH 17 0
BBX 15 17 3 0
BITMAP
00ee
0198
0770
0000
3e3e
3c3e
7c3c
7c3c
7c7c
7c7c
78fc
f9f8
fb78
ff78
fef8
fcf8
70f0
ENDCHAR
STARTCHAR udiaeresis
ENCODING 252
SWIDTH 675 0
DWIDTH 17 0
BBX 15 17 3 0
BITMAP
039c
071c
0738
0000
3e3e
3c3e
7c3c
7c3c
7c7c
7c7c
78fc
f9f8
fb78
ff78
fef8
fcf8
70f0
ENDCHAR
STARTCHAR yacute
ENCODING 253
SWIDTH 633 0
DWIDTH 16 0
BBX 17 22 1 -5
BITMAP
001e00
003800
00e000
000000
3e0780
3e0f00
3e0e00
1e1e00
1f3c00
1f3800
1f7800
1ff000
0fe000
0fe000
0fc000
0f8000
0f8000
0f0000
1e0000
3e0000
7c0000
f80000
ENDCHAR
STARTCHAR tcedilla
ENCODING 254
SWIDTH 437 0
DWIDTH 11 0
BBX 9 22 3 -5
BITMAP
0600
3e00
3e00
3e00
ff80
ff80
ff80
7c00
7c00
7c00
7c00
7800
f800
f800
ff00
fe00
7e00
0e00
1c00
0e00
0600
3c00
ENDCHAR
STARTCHAR abovedot
ENCODING 255
SWIDTH 663 0
DWIDTH 17 0
BBX 4 3 10 16
BITMAP
70
f0
e0
ENDCHAR
ENDFONT
